<svg xmlns="http://www.w3.org/2000/svg" xmlns:xlink="http://www.w3.org/1999/xlink" width="1080" zoomAndPan="magnify" viewBox="0 0 810 809.999993" height="1080" preserveAspectRatio="xMidYMid meet" version="1.0"><defs><g/><clipPath id="8030cc538a"><path d="M 431 279 L 691.566406 279 L 691.566406 507 L 431 507 Z M 431 279 " clip-rule="nonzero"/></clipPath><clipPath id="4678372ea4"><path d="M 118.566406 185 L 404 185 L 404 392 L 118.566406 392 Z M 118.566406 185 " clip-rule="nonzero"/></clipPath><clipPath id="efefa2e195"><path d="M 118.566406 366 L 364 366 L 364 625 L 118.566406 625 Z M 118.566406 366 " clip-rule="nonzero"/></clipPath><clipPath id="20ab5f9240"><path d="M 237 410 L 470 410 L 470 691.566406 L 237 691.566406 Z M 237 410 " clip-rule="nonzero"/></clipPath><clipPath id="37bf7275c9"><path d="M 236 118.566406 L 458 118.566406 L 458 362 L 236 362 Z M 236 118.566406 " clip-rule="nonzero"/></clipPath></defs><g clip-path="url(#8030cc538a)"><path fill="#cb9df0" d="M 691.3125 404.882812 C 691.3125 360.046875 680.988281 317.628906 662.628906 279.84375 C 593.222656 343.71875 515.40625 398.40625 431.632812 441.835938 C 509.089844 472.8125 590.242188 494.4375 672.808594 506.210938 C 684.734375 474.699219 691.3125 440.566406 691.3125 404.882812 " fill-opacity="1" fill-rule="nonzero"/></g><g clip-path="url(#4678372ea4)"><path fill="#cb9df0" d="M 220.386719 185.886719 C 161.199219 235.804688 122.519531 309.253906 118.816406 391.835938 C 210.964844 363.207031 306.96875 347.066406 403.484375 344.226562 C 348.851562 284.578125 287.242188 231.394531 220.386719 185.886719 " fill-opacity="1" fill-rule="nonzero"/></g><g clip-path="url(#efefa2e195)"><path fill="#cb9df0" d="M 118.683594 412.757812 C 120.980469 497.808594 160.304688 573.601562 221.191406 624.574219 C 256.496094 532.375 304.625 445.117188 363.917969 366.113281 C 280.683594 371.804688 198.1875 387.535156 118.683594 412.757812 " fill-opacity="1" fill-rule="nonzero"/></g><g clip-path="url(#20ab5f9240)"><path fill="#cb9df0" d="M 356.359375 410.679688 C 307.722656 481.035156 267.835938 557.355469 237.71875 637.371094 C 284.773438 671.273438 342.472656 691.296875 404.898438 691.296875 C 427.1875 691.296875 448.855469 688.664062 469.6875 683.84375 C 419.492188 598.636719 381.207031 506.460938 356.359375 410.679688 " fill-opacity="1" fill-rule="nonzero"/></g><path fill="#cb9df0" d="M 386.503906 444.421875 C 411.1875 526.296875 445.984375 605.070312 489.773438 678.5 C 567.507812 654.414062 631.023438 598.089844 664.820312 525.179688 C 568.964844 511.035156 475.054688 483.886719 386.503906 444.421875 " fill-opacity="1" fill-rule="nonzero"/><g clip-path="url(#37bf7275c9)"><path fill="#cb9df0" d="M 445.261719 361.515625 C 457.652344 282.699219 460.875 202.503906 455.085938 122.941406 C 438.78125 120.050781 422.03125 118.46875 404.898438 118.46875 C 342.113281 118.46875 284.089844 138.726562 236.886719 172.984375 C 314.226562 226.3125 384.527344 289.785156 445.261719 361.515625 " fill-opacity="1" fill-rule="nonzero"/></g><path fill="#cb9df0" d="M 457.785156 404.953125 C 528.105469 364.960938 593.652344 316.714844 652.890625 261.652344 C 614.742188 195.746094 551.144531 146.429688 475.476562 127.253906 C 481.695312 220.066406 475.824219 313.65625 457.785156 404.953125 " fill-opacity="1" fill-rule="nonzero"/><g fill="#ff3131" fill-opacity="1"><g transform="translate(401.050764, 398.25)"><g><path d="M 3.9375 0.140625 C 3.382812 0.140625 2.945312 -0.015625 2.625 -0.328125 C 2.300781 -0.640625 2.140625 -1.050781 2.140625 -1.5625 C 2.140625 -2.070312 2.300781 -2.488281 2.625 -2.8125 C 2.945312 -3.144531 3.382812 -3.3125 3.9375 -3.3125 C 4.507812 -3.3125 4.953125 -3.15625 5.265625 -2.84375 C 5.585938 -2.53125 5.75 -2.113281 5.75 -1.59375 C 5.75 -1.082031 5.585938 -0.664062 5.265625 -0.34375 C 4.941406 -0.0195312 4.5 0.140625 3.9375 0.140625 Z M 3.9375 0.140625 "/></g></g></g></svg>